<svg id="visual" viewBox="0 0 675 900" width="675" height="900" xmlns="http://www.w3.org/2000/svg" xmlns:xlink="http://www.w3.org/1999/xlink" version="1.1"><path d="M0 768L28.2 765.7C56.3 763.3 112.7 758.7 169 762.2C225.3 765.7 281.7 777.3 337.8 766.5C394 755.7 450 722.3 506.2 686.8C562.3 651.3 618.7 613.7 646.8 594.8L675 576L675 901L646.8 901C618.7 901 562.3 901 506.2 901C450 901 394 901 337.8 901C281.7 901 225.3 901 169 901C112.7 901 56.3 901 28.2 901L0 901Z" fill="#2e2693" stroke-linecap="round" stroke-linejoin="miter"></path></svg>