<svg id="visual" viewBox="0 0 675 900" width="675" height="900" xmlns="http://www.w3.org/2000/svg" xmlns:xlink="http://www.w3.org/1999/xlink" version="1.1"><path d="M0 116L28.2 124.7C56.3 133.3 112.7 150.7 169 175.2C225.3 199.7 281.7 231.3 337.8 263C394 294.7 450 326.3 506.2 316.2C562.3 306 618.7 254 646.8 228L675 202L675 0L646.8 0C618.7 0 562.3 0 506.2 0C450 0 394 0 337.8 0C281.7 0 225.3 0 169 0C112.7 0 56.3 0 28.2 0L0 0Z" fill="#2e2693" stroke-linecap="round" stroke-linejoin="miter"></path></svg>